<?xml version="1.0" encoding="UTF-8" standalone="no"?>
<!-- Created with Inkscape (http://www.inkscape.org/) -->

<svg
   width="146.13mm"
   height="65.562mm"
   version="1.1"
   viewBox="0 0 146.13 65.562"
   id="svg46"
   sodipodi:docname="logo-divecon-fundo-claro-transparente-com-nome-otimizado - Copia.svg"
   inkscape:version="1.1.1 (3bf5ae0d25, 2021-09-20)"
   xmlns:inkscape="http://www.inkscape.org/namespaces/inkscape"
   xmlns:sodipodi="http://sodipodi.sourceforge.net/DTD/sodipodi-0.dtd"
   xmlns="http://www.w3.org/2000/svg"
   xmlns:svg="http://www.w3.org/2000/svg">
  <sodipodi:namedview
     id="namedview48"
     pagecolor="#252525"
     bordercolor="#666666"
     borderopacity="1.0"
     inkscape:pageshadow="2"
     inkscape:pageopacity="0"
     inkscape:pagecheckerboard="0"
     inkscape:document-units="mm"
     showgrid="false"
     inkscape:zoom="1.3236835"
     inkscape:cx="53.260466"
     inkscape:cy="113.69787"
     inkscape:window-width="1920"
     inkscape:window-height="991"
     inkscape:window-x="-9"
     inkscape:window-y="-9"
     inkscape:window-maximized="1"
     inkscape:current-layer="svg46" />
  <defs
     id="defs8">
    <marker
       style="overflow:visible;"
       id="marker28665"
       refX="0.0"
       refY="0.0"
       orient="auto"
       inkscape:stockid="Arrow2Mend"
       inkscape:isstock="true">
      <path
         transform="scale(0.6) rotate(180) translate(0,0)"
         d="M 8.7185878,4.0337352 L -2.2072895,0.016013256 L 8.7185884,-4.0017078 C 6.9730900,-1.6296469 6.9831476,1.6157441 8.7185878,4.0337352 z "
         style="stroke:context-stroke;fill-rule:evenodd;fill:context-stroke;stroke-width:0.62500000;stroke-linejoin:round;"
         id="path28663" />
    </marker>
    <marker
       style="overflow:visible;"
       id="Arrow2Mend"
       refX="0.0"
       refY="0.0"
       orient="auto"
       inkscape:stockid="Arrow2Mend"
       inkscape:isstock="true">
      <path
         transform="scale(0.6) rotate(180) translate(0,0)"
         d="M 8.7185878,4.0337352 L -2.2072895,0.016013256 L 8.7185884,-4.0017078 C 6.9730900,-1.6296469 6.9831476,1.6157441 8.7185878,4.0337352 z "
         style="stroke:context-stroke;fill-rule:evenodd;fill:context-stroke;stroke-width:0.62500000;stroke-linejoin:round;"
         id="path28211" />
    </marker>
    <marker
       id="marker2253"
       overflow="visible"
       orient="auto">
      <path
         transform="scale(-.6)"
         d="m8.7186 4.0337-10.926-4.0177 10.926-4.0177c-1.7455 2.3721-1.7354 5.6175-6e-7 8.0354z"
         fill="#165016"
         fill-rule="evenodd"
         stroke="#165016"
         stroke-linejoin="round"
         stroke-width=".625"
         id="path2" />
    </marker>
    <marker
       id="marker2263"
       overflow="visible"
       orient="auto">
      <path
         transform="scale(-.6)"
         d="m8.7186 4.0337-10.926-4.0177 10.926-4.0177c-1.7455 2.3721-1.7354 5.6175-6e-7 8.0354z"
         fill="#165016"
         fill-rule="evenodd"
         stroke="#165016"
         stroke-linejoin="round"
         stroke-width=".625"
         id="path5" />
    </marker>
  </defs>
  <path
     d="m 125.52,44.941 h -2.8777 V 27.218 q 0,-1.6788 -0.80022,-2.5658 -0.80021,-0.90278 -1.939,-0.90278 -0.70789,0 -1.3696,0.23763 -0.64633,0.23764 -1.2311,0.68105 -0.49244,0.34845 -0.80022,0.76023 -0.29239,0.39596 -0.46166,0.68105 v 11.799 h -2.8623 v -12.306 q 0,-0.5385 -0.21544,-0.98196 -0.20005,-0.44349 -0.63095,-0.7444 -0.27699,-0.19001 -0.69249,-0.26927 -0.40011,-0.095 -0.86177,-0.12674 v -1.0295 l 5.0475,-0.34844 0.21544,0.22175 v 2.2015 h 0.0769 q 0.35394,-0.38012 0.92333,-0.90277 0.56938,-0.5385 1.0618,-0.8711 0.56938,-0.38012 1.3388,-0.63353 0.78483,-0.25351 1.7236,-0.25351 2.1852,0 3.2624,1.4096 1.0926,1.3938 1.0926,3.722 z"
     id="path12"
     style="fill:#ffffff" />
  <path
     d="m 103.35,21.901 c -1.0814,0 -2.0089,0.24221 -2.7823,0.72594 -0.77337,0.48374 -1.3964,1.1286 -1.8686,1.9348 -0.46539,0.79278 -0.79035,1.606 -0.97514,2.4391 -0.18478,0.82639 -0.27698,1.78 -0.27698,2.8616 0,1.0346 0.0957,1.9824 0.28732,2.8424 0.19847,0.85326 0.52692,1.6728 0.98547,2.4589 0.47222,0.80621 1.0883,1.4545 1.848,1.945 0.76652,0.49045 1.6906,0.73558 2.7719,0.73558 1.0813,0 2.0019,-0.24513 2.7616,-0.73558 0.75967,-0.49718 1.3822,-1.1455 1.8681,-1.945 0.44486,-0.73904 0.76684,-1.5488 0.96532,-2.4289 0.20531,-0.88014 0.30747,-1.8406 0.30747,-2.882 0,-1.0346 -0.0957,-1.9756 -0.28732,-2.8221 -0.18479,-0.85326 -0.50975,-1.6762 -0.97513,-2.469 -0.47224,-0.80622 -1.0918,-1.4511 -1.8583,-1.9348 -0.75968,-0.48373 -1.6832,-0.72594 -2.7714,-0.72594 z m -0.0135,0.81675 c 0.98928,-0.008 1.5236,0.72887 1.9797,1.4006 0.33672,0.51061 0.59774,1.1756 0.78238,1.9952 0.18479,0.81293 0.28227,1.8008 0.293,2.9631 h -6.0942 c 0.0109,-1.1489 0.10889,-2.1367 0.29352,-2.9631 0.18466,-0.8331 0.43947,-1.498 0.76533,-1.9952 0.50094,-0.73615 0.99095,-1.3929 1.9802,-1.4006 z m -3.0391,7.3867 h 6.0942 v 0.27241 c 0,1.3571 -0.0923,2.4287 -0.27698,3.2147 -0.18465,0.77935 -0.44515,1.4443 -0.78187,1.9952 -0.49903,0.71642 -1.0384,1.4704 -1.9963,1.4412 -0.95787,-0.0292 -1.5471,-0.73881 -1.9962,-1.4311 -0.33673,-0.5442 -0.59721,-1.2091 -0.78187,-1.9952 -0.17379,-0.78607 -0.26096,-1.861 -0.26096,-3.2249 z"
     id="path14"
     style="fill:#ffffff" />
  <path
     d="m 90.4,37.861 q -3.2932,0 -5.1552,-2.169 -1.862,-2.169 -1.862,-5.8195 0,-1.5885 0.49244,-2.9632 0.50783,-1.39 1.4619,-2.5203 0.90794,-1.0845 2.2775,-1.7413 1.3696,-0.67207 2.9854,-0.67207 2.2314,0 3.6318,1.0692 1.4004,1.0539 1.4004,2.8868 0,0.76372 -0.36933,1.3594 -0.36933,0.58044 -1.2157,0.58044 -0.90794,0 -1.4158,-0.45825 -0.49244,-0.45823 -0.49244,-1.0234 0,-0.68735 0.18466,-1.4052 0.18467,-0.73319 0.21545,-1.0692 -0.277,-0.47349 -0.831,-0.62623 -0.53861,-0.16794 -1.1696,-0.16794 -0.73866,0 -1.4158,0.32078 -0.66172,0.30549 -1.2927,1.1456 -0.56938,0.76371 -0.92333,2.062 -0.35394,1.2983 -0.35394,3.1007 0,2.841 1.2619,4.6434 1.2773,1.7871 3.3394,1.7871 1.4927,0 2.493,-0.7179 1.0157,-0.71788 1.8774,-2.1537 l 0.98488,0.64152 q -1.0157,1.8024 -2.6776,2.8563 -1.662,1.0539 -3.4317,1.0539 z"
     id="path16"
     style="fill:#ffffff" />
  <path
     d="m 81.87,32.121 c -0.92987,1.9281 -2.1674,3.3708 -3.7126,4.328 -1.5315,0.95721 -3.2408,1.4358 -5.1279,1.4358 -1.1076,0 -2.18,-0.12133 -3.2203,-0.3487 -1.7049,-0.53137 -3.3001,-1.5563 -4.2296,-2.9742 -0.49228,-0.76578 -0.73842,-1.6546 -0.73842,-2.6665 0,-0.91619 0.17777,-1.6888 0.53331,-2.3178 0.35553,-0.64269 0.8273,-1.1897 1.4153,-1.6409 1.355,-0.8621 1.8717,-0.83442 3.327,-1.2512 v -0.20502 c -1.0256,-0.17776 -1.3511,-0.44441 -2.0348,-0.79996 -0.68372,-0.35553 -1.2102,-0.74526 -1.5794,-1.1692 -0.36922,-0.43757 -0.62219,-0.89566 -0.75893,-1.3743 -0.13675,-0.47861 -0.20512,-0.95038 -0.20512,-1.4153 0,-0.53331 0.12307,-1.0803 0.36921,-1.6409 0.77947,-1.385 2.2109,-2.637 3.3886,-3.0357 1.0686,-0.34937 2.3383,-0.53332 3.8152,-0.53332 2.3657,0 4.1981,0.43074 5.4971,1.2922 1.2991,0.84782 1.9486,1.9965 1.9486,3.446 0,0.65637 -0.15042,1.2444 -0.45126,1.764 -0.30084,0.50595 -0.82731,0.75893 -1.5794,0.75893 -0.80679,0 -1.429,-0.19144 -1.8666,-0.57432 -0.42391,-0.39657 -0.63586,-0.84099 -0.63586,-1.3333 0,-0.50596 0.0479,-0.99141 0.14359,-1.4563 0.0957,-0.46493 0.1846,-0.95037 0.26665,-1.4563 -0.27349,-0.23247 -0.72475,-0.43758 -1.3538,-0.61535 -0.62903,-0.17776 -1.2717,-0.26664 -1.9281,-0.26664 -1.2444,0 -2.2221,0.36237 -2.9332,1.0871 -0.71107,0.71108 -1.0666,1.5521 -1.0666,2.5229 0,1.4495 0.32819,2.4956 0.98456,3.1383 0.67005,0.64271 1.7982,0.96406 3.3844,0.96406 h 1.7025 v 1.9076 h -2.2153 c -0.91619,0 -1.6683,0.11623 -2.2563,0.3487 -0.57433,0.23247 -1.0324,0.53332 -1.3743,0.90253 -0.32819,0.36921 -0.55382,0.79312 -0.67689,1.2717 -0.12307,0.46492 -0.18461,0.93668 -0.18461,1.4153 0,1.3674 0.47177,2.3999 1.4153,3.0973 0.94353,0.69739 2.1606,1.0461 3.6511,1.0461 1.5315,0 2.8374,-0.35554 3.9177,-1.0666 1.0803,-0.71105 2.058,-1.8665 2.9332,-3.4665 z"
     fill="#ff6600"
     id="path20" />
  <path
     d="m 60.488,34.861 q -0.93872,1.4312 -2.216,2.2314 -1.2773,0.80022 -3.0778,0.80022 -1.0618,0 -2.0775,-0.2924 -1.0003,-0.29237 -1.7697,-0.92332 -0.81561,-0.67711 -1.2465,-1.585 -0.43088,-0.92335 -0.43088,-2.416 l 0.0462,-7.1866 q 0,-0.80022 -0.33856,-1.2311 -0.32316,-0.44629 -1.1849,-0.44629 -0.36933,0 -0.83099,0.0615 -0.44628,0.0463 -0.66172,0.0615 v -0.98488 q 0.554,-0.23089 1.5081,-0.53859 0.9695,-0.32318 1.6158,-0.32318 1.5697,0 2.216,0.83099 0.64633,0.831 0.63094,2.7084 l -0.0462,6.4171 q -0.0308,1.5081 0.32317,2.3083 0.35394,0.80024 0.84638,1.2004 0.46166,0.38471 1.0618,0.49244 0.60017,0.10773 1.1388,0.10773 2.0621,0 3.3702,-1.8466 1.308,-1.862 1.308,-4.7244 0,-1.2311 -0.33855,-2.0775 -0.33855,-0.86177 -1.1542,-1.5235 -0.60016,-0.49244 -1.031,-1.0926 -0.43088,-0.60017 -0.43088,-1.385 0,-0.60015 0.47705,-1.0464 0.49244,-0.44627 1.2311,-0.44627 0.89255,0 1.4773,0.56938 0.58477,0.55399 0.87716,1.3696 0.29239,0.83099 0.4155,1.7543 0.1231,0.92333 0.1231,2.0005 0,1.9852 -0.47705,3.9088 -0.46166,1.9082 -1.3542,3.247 z"
     id="path22"
     style="fill:#ffffff" />
  <path
     d="m 45.838,37.871 h -7.3405 v -1.0432 q 0.35394,-0.0317 0.72328,-0.0632 0.38472,-0.0317 0.66172,-0.1265 0.43088,-0.14234 0.63094,-0.49 0.21544,-0.36354 0.21544,-0.93257 v -9.626 q 0,-0.5058 -0.23082,-0.91676 -0.21544,-0.42679 -0.61555,-0.7113 -0.29239,-0.18962 -0.84639,-0.31612 -0.55399,-0.14235 -1.0157,-0.17378 v -1.0274 l 5.3553,-0.34773 0.21544,0.22132 v 12.708 q 0,0.55321 0.20004,0.91676 0.21544,0.36353 0.66172,0.53742 0.33855,0.14234 0.66172,0.23715 0.32316,0.079 0.72327,0.11066 z"
     id="path24"
     style="fill:#ffffff" />
  <path
     d="m 43.899,16.111 q 0,0.87717 -0.58477,1.5389 -0.56939,0.64635 -1.4158,0.64635 -0.78483,0 -1.3696,-0.61558 -0.56939,-0.63092 -0.56939,-1.4311 0,-0.84639 0.56939,-1.4773 0.58477,-0.63095 1.3696,-0.63095 0.87716,0 1.4312,0.60017 0.56938,0.58478 0.56938,1.3696 z"
     id="path26"
     style="fill:#ffffff" />
  <path
     d="m 35.036,4.805 c -1.7685,-0.38675 -3.2749,-0.35272 -4.5249,0.08482 -1.2432,0.43517 -2.7701,1.1742 -3.028,2.3532 -0.17287,0.7905 0.43066,2.4631 0.7397,3.2326 1.7713,3.6919 3.3545,10.377 3.5977,12.384 -2.1024,-0.88532 -11.174,-5.0186 -13.753,4.7156 -0.57345,2.1638 -0.26857,4.7914 0.88168,6.6574 1.1502,1.866 2.7877,3.1158 4.9609,3.5065 2.1821,0.39234 4.5459,0.0928 7.0491,-1.3732 2.2038,-1.5396 3.3707,-3.7113 3.9215,-6.2301 0.56379,-3.7291 -0.81635,-12.551 -4.9812,-20.811 -0.39947,-0.677 -0.52909,-1.3372 -0.38845,-1.9803 0.14942,-0.68329 0.57833,-1.1996 1.3137,-1.4816 1.5609,-0.59858 2.8846,-0.08 3.5451,0.63156 1.4256,1.5696 3.8538,-0.72301 0.66635,-1.69 z M 32.18,24.718 c 2.1701,6.3803 -1.6888,10.941 -6.5238,10.869 -1.4973,-0.0223 -3.1808,-1.1598 -3.9264,-2.5258 -1.0994,-2.0142 -1.0037,-5.2611 -7.96e-4,-6.8842 2.614,-4.2303 6.5031,-3.6187 10.451,-1.4587 z"
     id="path28"
     style="fill:#ffffff" />
  <path
     d="m 7.276,40.541 h 114.32 m 5.1557,0 h 10.119"
     marker-end="url(#marker2263)"
     stroke="#165016"
     stroke-width="1.2114"
     id="path30"
     style="fill:#ffffff;stroke:#ffffff;fill-opacity:1;marker-end:url(#marker28665)" />
  <text
     x="125.63283"
     y="52.10421"
     fill="#165016"
     font-family="'Roboto Slab'"
     font-size="7.0556px"
     font-weight="500"
     letter-spacing="0px"
     stroke-width="0.26458"
     text-align="center"
     text-anchor="end"
     word-spacing="0px"
     style="line-height:1.25;font-variant-ligatures:normal;font-variant-caps:normal;font-variant-numeric:normal;font-feature-settings:normal;fill:#ffffff"
     xml:space="preserve"
     id="text40"><tspan
       x="125.63283"
       y="52.10421"
       text-align="end"
       id="tspan36"
       style="fill:#ffffff">Laboratório de</tspan><tspan
       x="125.63283"
       y="61.289455"
       text-align="end"
       id="tspan38"
       style="fill:#ffffff">Diversidade &amp; Conservação</tspan></text>
  <path
     d="M 13.528,47.001 V 7.457"
     marker-end="url(#marker2253)"
     stroke="#165016"
     stroke-width="1.294"
     id="path10"
     style="fill:#ffffff;stroke:#ffffff;marker-end:url(#Arrow2Mend)" />
</svg>
